<?xml version="1.0" encoding="UTF-8"?>
<svg id="Layer_2" data-name="Layer 2" xmlns="http://www.w3.org/2000/svg" viewBox="0 0 236.59 94.78">
  <defs>
    <style>
      .cls-1 {
        fill: none;
      }

      .cls-1, .cls-2 {
        stroke-width: 0px;
      }

      .cls-2 {
        fill: #fff;
      }
    </style>
  </defs>
  <g id="Layer_5" data-name="Layer 5">
    <g>
      <rect class="cls-1" width="236.59" height="94.78"/>
      <g>
        <g>
          <path class="cls-2" d="M195.85,14.59h8.25v1.47h-3.24v8.27h-1.78v-8.27h-3.23v-1.47Z"/>
          <path class="cls-2" d="M204.97,14.59h2.51l2.81,7.63h.03l2.74-7.63h2.48v9.74h-1.7v-7.52h-.03l-2.83,7.52h-1.47l-2.83-7.52h-.03v7.52h-1.7v-9.74Z"/>
        </g>
        <g>
          <path class="cls-2" d="M50.99,65.68l-2.61-8.53h-15.25l-2.93,8.53h-9.15l14.76-41.34h10.02l14.57,41.34h-9.4ZM40.71,33.61h-.06l-5.29,16.44h10.52l-5.17-16.44Z"/>
          <path class="cls-2" d="M83.1,61.57c-1.12,2.74-4.42,4.36-8.41,4.36-10.09,0-13.57-7.72-13.57-15.75,0-9.53,5.98-15.94,13.39-15.94,3.86,0,6.66,1.49,8.59,4.61v-3.8h8.09v30.94c0,9.22-6.72,14.2-15.25,14.2s-15.89-4.92-15.89-12.83h7.53c0,3.67,3.75,5.85,7.79,5.85,4.3,0,7.72-2.55,7.72-6.6v-5.04ZM83.34,51.11c0-6.66-2.3-9.84-6.91-9.84s-6.91,3.05-6.91,9.34c0,5.48,2.93,8.97,6.91,8.97s6.91-3.3,6.91-8.47Z"/>
          <path class="cls-2" d="M96.91,65.68v-30.63h7.6v3.67c2.68-4.11,5.79-4.48,9.09-4.48h1.06v8.28c-.75-.12-1.5-.19-2.24-.19-4.98,0-7.41,2.49-7.41,7.41v15.94h-8.1Z"/>
          <path class="cls-2" d="M119.2,65.68v-30.63h8.09v30.63h-8.09Z"/>
          <path class="cls-2" d="M156.43,36.54c-.43-4.23-2.99-6.29-8.28-6.29-4.79,0-7.35,1.68-7.35,5.04,0,2.37,1.93,3.98,6.41,5.04,5.29,1.24,9.03,2.24,12.27,3.61,3.74,1.56,6.48,4.11,6.48,10.71,0,7.91-7.1,12.45-15.63,12.45-11.95,0-18.06-4.73-18.37-13.82h8.34c.06,4.17,3.86,6.85,8.9,6.85,5.42,0,8.34-2.18,8.34-5.54,0-2.74-1.12-4.42-6.41-5.54-12.64-2.68-18.24-4.92-18.24-13.82,0-6.85,5.04-12.27,15.25-12.27s16.19,5.42,16.5,13.57h-8.22Z"/>
          <path class="cls-2" d="M197.03,65.68l-2.61-8.53h-15.25l-2.93,8.53h-9.15l14.76-41.34h10.02l14.57,41.34h-9.4ZM186.75,33.61h-.06l-5.29,16.44h10.52l-5.17-16.44Z"/>
          <circle class="cls-2" cx="123.25" cy="27.56" r="4.6"/>
        </g>
      </g>
    </g>
  </g>
</svg>