<?xml version="1.0" encoding="utf-8"?>
<!-- Generator: Adobe Illustrator 27.4.0, SVG Export Plug-In . SVG Version: 6.00 Build 0)  -->
<!DOCTYPE svg PUBLIC "-//W3C//DTD SVG 1.1//EN" "http://www.w3.org/Graphics/SVG/1.1/DTD/svg11.dtd" [
	<!ENTITY ns_extend "http://ns.adobe.com/Extensibility/1.0/">
	<!ENTITY ns_ai "http://ns.adobe.com/AdobeIllustrator/10.0/">
	<!ENTITY ns_graphs "http://ns.adobe.com/Graphs/1.0/">
	<!ENTITY ns_vars "http://ns.adobe.com/Variables/1.0/">
	<!ENTITY ns_imrep "http://ns.adobe.com/ImageReplacement/1.0/">
	<!ENTITY ns_sfw "http://ns.adobe.com/SaveForWeb/1.0/">
	<!ENTITY ns_custom "http://ns.adobe.com/GenericCustomNamespace/1.0/">
	<!ENTITY ns_adobe_xpath "http://ns.adobe.com/XPath/1.0/">
]>
<svg version="1.1" id="Layer_1" xmlns:x="&ns_extend;" xmlns:i="&ns_ai;" xmlns:graph="&ns_graphs;"
	 xmlns="http://www.w3.org/2000/svg" xmlns:xlink="http://www.w3.org/1999/xlink" x="0px" y="0px" width="860.8px" height="265.8px"
	 viewBox="0 0 860.8 265.8" style="enable-background:new 0 0 860.8 265.8;" xml:space="preserve">
<style type="text/css">
	.st0{fill:#FFFFFF;}
	.st1{clip-path:url(#SVGID_00000090977004550417903680000006748219575224693404_);fill:#FFFFFF;}
</style>
<metadata>
	<sfw  xmlns="&ns_sfw;">
		<slices></slices>
		<sliceSourceBounds  bottomLeftOrigin="true" height="265.8" width="860.8" x="0" y="0"></sliceSourceBounds>
	</sfw>
</metadata>
<polygon class="st0" points="266.4,203.7 255.6,175.5 261.1,175.5 269,198 277.2,175.5 282.6,175.5 271.4,203.7 "/>
<g>
	<defs>
		<rect id="SVGID_1_" width="860.8" height="265.8"/>
	</defs>
	<clipPath id="SVGID_00000058572522669552944470000002640900802644749703_">
		<use xlink:href="#SVGID_1_"  style="overflow:visible;"/>
	</clipPath>
	<path style="clip-path:url(#SVGID_00000058572522669552944470000002640900802644749703_);fill:#FFFFFF;" d="M310.3,203.7
		c-0.1-0.4-0.2-0.7-0.2-1.2c0-0.4-0.2-1.9-0.2-2.5c-0.5-5.5-2.4-7.2-7.5-7.2h-4.9v11h-4.8v-28.2h12.5c3.9,0,6.2,0.5,7.6,1.6
		c1.8,1.3,2.8,3.5,2.8,6.1c0,4.3-1.5,6.9-4.8,8.1l-1.1,0.4l1.1,0.3c2.9,0.9,4.3,3.3,4.5,7.7c0.2,2.3,0.2,3.1,0.5,4H310.3z
		 M297.5,188.3h8.2c3.1,0,4.4-1.3,4.4-4.4c0-1.9-0.8-3.2-2.2-3.8l0,0c-0.5-0.2-1.3-0.2-2.2-0.2h-8.2V188.3z"/>
	<polygon style="clip-path:url(#SVGID_00000058572522669552944470000002640900802644749703_);fill:#FFFFFF;" points="333.1,203.7 
		333.1,191.3 323.6,175.5 329.3,175.5 335.5,187.2 342.1,175.5 347.8,175.5 337.9,191.5 337.9,203.7 	"/>
	<path style="clip-path:url(#SVGID_00000058572522669552944470000002640900802644749703_);fill:#FFFFFF;" d="M356.8,203.7v-4.4h11.6
		c2.1,0,3.4-0.2,4.1-0.8c0.9-0.6,1.5-1.7,1.5-3c0-1.5-0.7-2.8-1.9-3.4c-0.8-0.5-2.1-0.6-3-0.6h-4.8c-3,0-5-0.6-6.3-1.8
		c-1.5-1.4-2.4-3.7-2.4-6.1c0-3.6,1.7-6.7,4.3-7.6c1.1-0.4,2.4-0.6,5.5-0.6H378v4.4h-11.4l-0.1,0c-2.4,0-2.6,0-3.5,0.3
		c-1.3,0.3-2.1,1.6-2.1,3.3c0,1.4,0.6,2.6,1.7,3.2c0.8,0.4,1.5,0.5,3.5,0.5h4.2c3.8,0,5.7,0.6,7.2,2.3c1.1,1.2,1.9,3.7,1.9,6.1
		c0,3-1.2,5.8-3.2,7.1c-1.2,0.8-2.8,1.1-6.6,1.1H356.8z"/>
	<polygon style="clip-path:url(#SVGID_00000058572522669552944470000002640900802644749703_);fill:#FFFFFF;" points="396.3,203.7 
		396.3,179.9 387.9,179.9 387.9,175.5 409.8,175.5 409.8,179.9 401.1,179.9 401.1,203.7 	"/>
	<path style="clip-path:url(#SVGID_00000058572522669552944470000002640900802644749703_);fill:#FFFFFF;" d="M435.4,203.7l-2.5-6.7
		h-10.5l-2.5,6.7h-5.8l10.6-28.2h5.9l10.6,28.2H435.4z M423.4,192.5h8.6l-4.3-11.6L423.4,192.5z"/>
	<path style="clip-path:url(#SVGID_00000058572522669552944470000002640900802644749703_);fill:#FFFFFF;" d="M468.6,203.7l-2.5-6.7
		h-10.5l-2.5,6.7h-5.8l10.6-28.2h5.9l10.6,28.2H468.6z M456.5,192.5h8.6l-4.3-11.6L456.5,192.5z"/>
	<polygon style="clip-path:url(#SVGID_00000058572522669552944470000002640900802644749703_);fill:#FFFFFF;" points="488.8,203.7 
		488.8,179.9 480.4,179.9 480.4,175.5 502.3,175.5 502.3,179.9 493.6,179.9 493.6,203.7 	"/>
	<path style="clip-path:url(#SVGID_00000058572522669552944470000002640900802644749703_);fill:#FFFFFF;" d="M539.8,203.7
		c-3.7,0-4.5-0.1-5.8-0.5c-2.6-0.7-4.5-2.7-5.3-5.3c-0.4-1.3-0.6-3.7-0.6-6.6v-15.8h4.8v15.8c0.2,5.1,0.3,5.5,1.4,6.6
		c1.1,1.1,2.4,1.4,6,1.4h5v4.4H539.8z"/>
	<path style="clip-path:url(#SVGID_00000058572522669552944470000002640900802644749703_);fill:#FFFFFF;" d="M575.6,203.7l-2.5-6.7
		h-10.5l-2.5,6.7h-5.8l10.6-28.2h5.9l10.6,28.2H575.6z M563.5,192.5h8.6l-4.3-11.6L563.5,192.5z"/>
	<polygon style="clip-path:url(#SVGID_00000058572522669552944470000002640900802644749703_);fill:#FFFFFF;" points="607.3,203.7 
		596.6,182.7 595.9,182.8 595.9,203.7 591.4,203.7 591.4,175.5 597.9,175.5 608.2,196.8 609,196.7 609,175.5 613.5,175.5 
		613.5,203.7 	"/>
	<path style="clip-path:url(#SVGID_00000058572522669552944470000002640900802644749703_);fill:#FFFFFF;" d="M626,203.7v-28.2h10.8
		c5.3,0,8.3,1.1,10.2,3.8c1.5,2,2.5,6.1,2.5,10.3c0,2.5-0.4,5.5-1.1,7.6c-0.9,3.1-2.6,4.9-5.4,5.8c-1.4,0.5-2.8,0.6-6.3,0.6H626z
		 M630.8,199.3h5.9c2.6,0,4.5-0.7,5.5-2.1c1.2-1.6,1.9-4.5,1.9-7.6c0-3.6-1-6.8-2.5-8.3c-1.1-1-2.6-1.4-4.9-1.4h-5.9V199.3z"/>
	<path style="clip-path:url(#SVGID_00000058572522669552944470000002640900802644749703_);fill:#FFFFFF;" d="M660.5,203.7v-28.2H675
		c2.4,0,4,0.3,5.1,0.9c1.8,1.1,3.1,3.6,3.1,6.3c0,2.8-1.5,5.6-3.6,6.6l-0.7,0.3l0.7,0.4c2.4,1.2,3.6,3.4,3.6,6.4
		c0,3.3-1.3,5.7-3.6,6.7c-1,0.4-2.6,0.6-4.9,0.6H660.5z M665.3,199.3h8c1.6,0,2.3-0.1,3.1-0.8c0.8-0.7,1.4-1.9,1.4-3.2
		c0-1.2-0.5-2.3-1.3-2.9c-0.7-0.5-1.4-0.7-3-0.7h-8.1V199.3z M665.3,187.4h8c1.6,0,2.3-0.1,3-0.8c0.9-0.7,1.4-1.9,1.4-3.2
		c0-1.2-0.5-2.3-1.3-2.9c-0.7-0.5-1.4-0.7-3-0.7h-8.1V187.4z"/>
	<path style="clip-path:url(#SVGID_00000058572522669552944470000002640900802644749703_);fill:#FFFFFF;" d="M705.9,203.8
		c-4.9,0-8.8-1.7-10.7-4.9c-1.5-2.3-2.2-5.4-2.2-9.3c0-5.4,1.4-9.5,3.8-11.7c2-1.8,5.1-2.7,8.9-2.7c4.4,0,8.1,1.6,10,4.3
		c1.6,2.2,2.5,6.1,2.5,10.3C718.1,199.1,714,203.8,705.9,203.8 M705.5,179.4c-2.6,0-4.8,1.1-5.9,3.1c-0.8,1.5-1.3,3.8-1.3,7
		c0,7,2.3,10.2,7.2,10.2c4.9,0,7.2-3.3,7.2-10.3C712.7,182.6,710.4,179.4,705.5,179.4"/>
	<path style="clip-path:url(#SVGID_00000058572522669552944470000002640900802644749703_);fill:#FFFFFF;" d="M739.9,203.9
		c-4.1,0-6.9-1-8.8-3c-1.7-2-2.3-4-2.3-8.3v-17.1h4.8v17c0,2.9,0.4,4.4,1.6,5.6c1.1,1.1,3,1.8,4.8,1.8c2.8,0,4.9-1.1,5.6-3
		c0.3-0.9,0.5-2.2,0.5-4.3v-17h4.8v16.7c0,4.5-0.8,7.3-2.7,9C746.3,203,743.6,203.9,739.9,203.9"/>
	<path style="clip-path:url(#SVGID_00000058572522669552944470000002640900802644749703_);fill:#FFFFFF;" d="M217.8,258.5v-14.7
		c0-3.7,0.3-6.6,1-8.1c1.1-2.6,3.1-4.3,6-4.9c1.4-0.3,2.2-0.4,4.8-0.4h8.7v4.4h-8c-2.3,0-4.3,0.3-5.3,0.8c-1.6,0.8-2.3,2.4-2.3,4.7
		v1.9h15.6v4.4h-15.6v11.9H217.8z"/>
	<path style="clip-path:url(#SVGID_00000058572522669552944470000002640900802644749703_);fill:#FFFFFF;" d="M267.1,258.5
		c-0.1-0.4-0.2-0.7-0.2-1.2c-0.1-0.8-0.2-2-0.2-2.5c-0.5-5.5-2.4-7.2-7.5-7.2h-4.9v11h-4.8v-28.2h12.5c3.9,0,6.2,0.5,7.6,1.6
		c1.8,1.3,2.8,3.5,2.8,6.1c0,4.3-1.5,6.9-4.8,8.1l-1.1,0.4l1.1,0.3c2.9,0.9,4.3,3.3,4.5,7.7c0.2,2.3,0.2,3.1,0.5,4H267.1z
		 M254.3,243.1h8.2c3.1,0,4.4-1.3,4.4-4.4c0-1.9-0.8-3.2-2.2-3.8l0,0c-0.5-0.2-1.3-0.2-2.2-0.2h-8.2V243.1z"/>
	<path style="clip-path:url(#SVGID_00000058572522669552944470000002640900802644749703_);fill:#FFFFFF;" d="M360.8,258.5v-4.4h11.6
		c2.1,0,3.4-0.2,4.1-0.8c0.9-0.6,1.5-1.7,1.5-3c0-1.5-0.7-2.8-1.9-3.4c-0.8-0.5-2.1-0.6-3-0.6h-4.8c-3,0-5-0.6-6.3-1.8
		c-1.5-1.4-2.4-3.7-2.4-6.1c0-3.6,1.7-6.7,4.3-7.6c1.1-0.4,2.4-0.6,5.5-0.6H382v4.4h-11.4l-0.1,0c-2.4,0-2.6,0-3.5,0.3
		c-1.3,0.4-2.1,1.6-2.1,3.3c0,1.4,0.6,2.6,1.7,3.2c0.9,0.4,1.6,0.5,3.5,0.5h4.2c3.8,0,5.7,0.6,7.2,2.3c1.1,1.2,1.9,3.7,1.9,6.1
		c0,3-1.2,5.8-3.2,7.1c-1.2,0.8-2.8,1.1-6.6,1.1H360.8z"/>
	<polygon style="clip-path:url(#SVGID_00000058572522669552944470000002640900802644749703_);fill:#FFFFFF;" points="400.3,258.5 
		400.3,234.7 391.9,234.7 391.9,230.3 413.8,230.3 413.8,234.7 405.1,234.7 405.1,258.5 	"/>
	<path style="clip-path:url(#SVGID_00000058572522669552944470000002640900802644749703_);fill:#FFFFFF;" d="M439.4,258.5l-2.5-6.7
		h-10.5l-2.5,6.7h-5.8l10.6-28.2h5.9l10.6,28.2H439.4z M427.3,247.4h8.6l-4.3-11.6L427.3,247.4z"/>
	<polygon style="clip-path:url(#SVGID_00000058572522669552944470000002640900802644749703_);fill:#FFFFFF;" points="458,258.5 
		458,234.7 449.6,234.7 449.6,230.3 471.5,230.3 471.5,234.7 462.8,234.7 462.8,258.5 	"/>
	<path style="clip-path:url(#SVGID_00000058572522669552944470000002640900802644749703_);fill:#FFFFFF;" d="M493.5,258.5
		c-5.5,0-8.1-0.8-10.1-3.1c-2.2-2.5-3.4-6.4-3.4-11.2c0-5,1.5-9,4.3-11.7c1.8-1.7,3.5-2.2,6.9-2.2h9.1v4.4h-6.9
		c-3.9,0-5.4,0.5-6.7,2.3c-0.8,1.2-1,1.9-1.2,4.9l0,0.4h13.2v4.4h-13.2l0,0.4c0.4,5.2,2.5,7,8.1,7h6.7v4.4H493.5z"/>
	<path style="clip-path:url(#SVGID_00000058572522669552944470000002640900802644749703_);fill:#FFFFFF;" d="M326.4,258.5
		c-5.5,0-8.1-0.8-10.1-3.1c-2.2-2.5-3.4-6.4-3.4-11.2c0-5,1.5-9,4.3-11.7c1.8-1.7,3.5-2.2,6.9-2.2h9.1v4.4h-6.9
		c-3.9,0-5.4,0.5-6.7,2.3c-0.8,1.2-1,1.9-1.2,4.9l0,0.4h13.2v4.4h-13.2l0,0.4c0.4,5.2,2.5,7,8.1,7h6.7v4.4H326.4z"/>
	<path style="clip-path:url(#SVGID_00000058572522669552944470000002640900802644749703_);fill:#FFFFFF;" d="M296,258.5
		c-5.5,0-8.1-0.8-10.1-3.1c-2.2-2.5-3.4-6.4-3.4-11.2c0-5,1.5-9,4.3-11.7c1.8-1.7,3.5-2.2,6.9-2.2h9.1v4.4H296
		c-3.9,0-5.4,0.5-6.7,2.3c-0.8,1.2-1,1.9-1.2,4.9l0,0.4h13.2v4.4h-13.2l0,0.4c0.4,5.2,2.5,7,8.1,7h6.7v4.4H296z"/>
	<path style="clip-path:url(#SVGID_00000058572522669552944470000002640900802644749703_);fill:#FFFFFF;" d="M8.5,152
		c0,0,6.2,13.4,11.2,22.1l0,0c0,0.1,0.2,0.4,0.3,0.5l0,0c4.9,8.7,14.8,22.4,14.8,22.4c3.8,4.9,7.1,1.9,7.1,1.9l0,0
		c9-6,34-45,34.1-54.7l0-0.3l-0.3-0.2c-8.4-4.9-55.3-3.2-65.1,1.4l0,0C10.6,144.9,5.8,146.6,8.5,152"/>
	<path style="clip-path:url(#SVGID_00000058572522669552944470000002640900802644749703_);fill:#FFFFFF;" d="M195.8,212
		c-11.1,8.4-23.8,14.8-37.1,18.7c-32.8,9.6-69.7,3.9-98.4-14.8c-2.6-1.7-5.3-3.9-5.3-7c0-1.8,1-3.4,1.9-4.9
		c4.6-7.4,9.3-14.7,13.9-22.1c0.5-0.7,1-1.5,1.9-1.7c1.1-0.2,2,0.7,2.7,1.5c8.6,9.8,19.7,14.5,32.1,18.7c13,4.5,27.4,4.1,40.8,0.8
		c29.3-7.3,54.1-25.7,65.2-53.8c11.1-28.1,7.9-61.5-8.5-86.9c-15.7-24.4-43.1-40.9-72-43.5c-1.3-0.1-1.9-1.7-1-2.7
		c2.7-2.7,5.8-3.7,9.6-4.3c4.7-0.7,9.2-0.1,13.8,0.9c10.2,2.3,19.9,6.1,29,11.2c18.2,10.1,33.7,25.3,43.7,43.6
		c16.5,30,18.2,67.6,4.9,99C225.1,183.5,212,199.8,195.8,212"/>
	<path style="clip-path:url(#SVGID_00000058572522669552944470000002640900802644749703_);fill:#FFFFFF;" d="M114,16.4
		c-2.5-3.9-11-4-16.3-2.7C85.1,16.7,75.3,21.7,64,28c-26.1,14.7-44.2,44.1-48.7,73.4c-1.4,9.3-1.8,18.6-1.4,27.9v0.8
		c0,0.8,0.3,1.5,0.9,1.9c7.5-1.1,17.5-1.7,26.8-1.7c0-0.3,0-0.5-0.2-0.8c-3.8-6.6-4.2-12.4-4-20.2C37.9,84.9,48.1,59,66.8,42.9
		c12.9-11.1,28.5-19.3,44.5-23.7C112.2,19,115,17.9,114,16.4"/>
	<path style="clip-path:url(#SVGID_00000058572522669552944470000002640900802644749703_);fill:#FFFFFF;" d="M846.1,258.7
		c-5.6,0-8.1-0.8-10.1-3.1c-2.2-2.5-3.4-6.5-3.4-11.2c0-5,1.5-9,4.4-11.7c1.8-1.7,3.6-2.3,7-2.3h9.1v4.4h-6.9c-4,0-5.5,0.5-6.7,2.3
		c-0.8,1.3-1,1.9-1.2,4.9l0,0.4h13.3v4.4h-13.3l0,0.4c0.4,5.2,2.5,7,8.1,7h6.7v4.4H846.1z"/>
	<path style="clip-path:url(#SVGID_00000058572522669552944470000002640900802644749703_);fill:#FFFFFF;" d="M546.5,258.7l-2.5-6.8
		h-10.6l-2.5,6.8H525l10.6-28.3h5.9l10.6,28.3H546.5z M534.4,247.5h8.6l-4.3-11.7L534.4,247.5z"/>
	<path style="clip-path:url(#SVGID_00000058572522669552944470000002640900802644749703_);fill:#FFFFFF;" d="M571.7,258.7
		c-4,0-6-0.5-7.9-2.2c-2.6-2.3-4-6.4-4-11.9c0-5.4,1.4-9.6,4-11.9c1.8-1.6,4.5-2.4,8.1-2.4h11.2v4.4h-10.5c-5.3,0-7.4,2.7-7.4,9.3
		c0,3.7,0.7,6.9,2,8.3c1.1,1.3,2.9,1.9,5.6,1.9h5.5v-7.7h-7.4v-4.4h12.2v16.5H571.7z"/>
	<path style="clip-path:url(#SVGID_00000058572522669552944470000002640900802644749703_);fill:#FFFFFF;" d="M612.8,258.7
		c-0.1-0.4-0.2-0.7-0.2-1.2c-0.1-0.8-0.2-2-0.2-2.6c-0.5-5.5-2.4-7.3-7.6-7.3h-4.9v11H595v-28.3h12.5c4,0,6.2,0.5,7.7,1.6
		c1.8,1.3,2.8,3.6,2.8,6.1c0,4.3-1.5,6.9-4.8,8.2l-1.1,0.4l1.1,0.3c2.9,0.9,4.3,3.3,4.5,7.7c0.2,2.3,0.2,3.1,0.5,4H612.8z
		 M599.8,243.2h8.3c3.1,0,4.4-1.3,4.4-4.4c0-1.9-0.8-3.3-2.2-3.8l0,0c-0.5-0.2-1.3-0.2-2.2-0.2h-8.3V243.2z"/>
	
		<rect x="629.6" y="230.3" style="clip-path:url(#SVGID_00000058572522669552944470000002640900802644749703_);fill:#FFFFFF;" width="4.9" height="28.3"/>
	<path style="clip-path:url(#SVGID_00000058572522669552944470000002640900802644749703_);fill:#FFFFFF;" d="M657.5,258.7
		c-4.5,0-6.5-0.7-8.5-2.8c-2.2-2.4-3.4-6.3-3.4-11.3c0-6.4,2-11.1,5.6-13c1.5-0.8,4-1.3,6.5-1.3h8.6v4.4h-7.9
		c-2.7,0-4.7,0.8-5.9,2.5c-0.9,1.2-1.4,3.6-1.4,6.7c0,4.5,0.9,7.5,2.6,8.9c1.1,0.9,2.8,1.4,5,1.4h7.7v4.4H657.5z"/>
	<path style="clip-path:url(#SVGID_00000058572522669552944470000002640900802644749703_);fill:#FFFFFF;" d="M688.2,258.9
		c-4.1,0-7-1-8.8-3c-1.8-2-2.3-4-2.3-8.3v-17.2h4.9v17.1c0,2.9,0.4,4.4,1.6,5.6c1.1,1.1,3,1.8,4.8,1.8c2.8,0,4.9-1.1,5.7-3
		c0.4-0.9,0.5-2.2,0.5-4.3v-17.1h4.9v16.8c0,4.5-0.8,7.3-2.7,9.1C694.6,258,692,258.9,688.2,258.9"/>
	<path style="clip-path:url(#SVGID_00000058572522669552944470000002640900802644749703_);fill:#FFFFFF;" d="M723,258.7
		c-3.7,0-4.6-0.1-5.8-0.5c-2.6-0.7-4.5-2.7-5.3-5.3c-0.4-1.3-0.6-3.7-0.6-6.6v-15.9h4.9v15.9c0.2,5.1,0.3,5.5,1.4,6.6
		c1.1,1.1,2.4,1.4,6.1,1.4h5v4.4H723z"/>
	<polygon style="clip-path:url(#SVGID_00000058572522669552944470000002640900802644749703_);fill:#FFFFFF;" points="741.6,258.7 
		741.6,234.8 733.2,234.8 733.2,230.3 755.2,230.3 755.2,234.8 746.5,234.8 746.5,258.7 	"/>
	<path style="clip-path:url(#SVGID_00000058572522669552944470000002640900802644749703_);fill:#FFFFFF;" d="M776.1,258.9
		c-4.1,0-7-1-8.8-3c-1.8-2-2.3-4-2.3-8.3v-17.2h4.9v17.1c0,2.9,0.4,4.4,1.6,5.6c1.1,1.1,3,1.8,4.8,1.8c2.8,0,4.9-1.1,5.7-3
		c0.3-0.9,0.5-2.2,0.5-4.3v-17.1h4.9v16.8c0,4.5-0.8,7.3-2.7,9.1C782.4,258,779.8,258.9,776.1,258.9"/>
	<path style="clip-path:url(#SVGID_00000058572522669552944470000002640900802644749703_);fill:#FFFFFF;" d="M817.2,258.7
		c-0.1-0.4-0.2-0.7-0.2-1.2c-0.1-0.7-0.2-2-0.2-2.6c-0.5-5.5-2.4-7.3-7.6-7.3h-4.9v11h-4.9v-28.3h12.5c4,0,6.2,0.5,7.7,1.6
		c1.8,1.3,2.8,3.6,2.8,6.1c0,4.3-1.5,6.9-4.8,8.2l-1.1,0.4l1.1,0.3c2.9,0.9,4.3,3.3,4.5,7.7c0.2,2.3,0.2,3.1,0.5,4H817.2z
		 M804.2,243.2h8.3c3.1,0,4.4-1.3,4.4-4.4c0-1.9-0.8-3.3-2.2-3.8l0,0c-0.5-0.2-1.3-0.2-2.2-0.2h-8.3V243.2z"/>
</g>
</svg>
